<mxfile host="app.diagrams.net" modified="2022-09-30T15:14:59.803Z" agent="5.0 (Windows NT 10.0; Win64; x64) AppleWebKit/537.36 (KHTML, like Gecko) Chrome/105.0.0.0 Safari/537.36" etag="qSC0mGzC-fvA4ZLJYj4v" version="20.3.5" type="github">
  <diagram id="C5RBs43oDa-KdzZeNtuy" name="Page-1">
    <mxGraphModel dx="820" dy="779" grid="1" gridSize="10" guides="1" tooltips="1" connect="1" arrows="1" fold="1" page="1" pageScale="1" pageWidth="1169" pageHeight="827" math="0" shadow="0">
      <root>
        <mxCell id="WIyWlLk6GJQsqaUBKTNV-0" />
        <mxCell id="WIyWlLk6GJQsqaUBKTNV-1" parent="WIyWlLk6GJQsqaUBKTNV-0" />
        <mxCell id="7nTJOUyS2WD26f5QNOcy-10" value="Build" style="swimlane;fontStyle=1;align=center;verticalAlign=top;childLayout=stackLayout;horizontal=1;startSize=26;horizontalStack=0;resizeParent=1;resizeParentMax=0;resizeLast=0;collapsible=1;marginBottom=0;" vertex="1" parent="WIyWlLk6GJQsqaUBKTNV-1">
          <mxGeometry x="190" y="500" width="201" height="34" as="geometry" />
        </mxCell>
        <mxCell id="7nTJOUyS2WD26f5QNOcy-12" value="" style="line;strokeWidth=1;fillColor=none;align=left;verticalAlign=middle;spacingTop=-1;spacingLeft=3;spacingRight=3;rotatable=0;labelPosition=right;points=[];portConstraint=eastwest;strokeColor=inherit;" vertex="1" parent="7nTJOUyS2WD26f5QNOcy-10">
          <mxGeometry y="26" width="201" height="8" as="geometry" />
        </mxCell>
        <mxCell id="7nTJOUyS2WD26f5QNOcy-21" value="&lt;pre style=&quot;box-sizing: border-box; font-family: SFMono-Regular, Menlo, Monaco, Consolas, &amp;quot;Liberation Mono&amp;quot;, &amp;quot;Courier New&amp;quot;, monospace; margin-top: 0px; margin-bottom: 1rem; overflow: auto; color: rgb(33, 37, 41); text-align: left; background-color: rgb(250, 252, 255);&quot;&gt;&lt;code style=&quot;box-sizing: border-box; font-family: SFMono-Regular, Menlo, Monaco, Consolas, &amp;quot;Liberation Mono&amp;quot;, &amp;quot;Courier New&amp;quot;, monospace; color: inherit; word-break: normal; font-size: 10px;&quot;&gt;&lt;font style=&quot;font-size: 10px;&quot;&gt;withCredentials([usernameColonPassword(credentialsId: &#39;credentialId&#39;, variable: &#39;VariableName&#39;)]) { .. }&lt;br&gt;&lt;/font&gt;&lt;/code&gt;&lt;/pre&gt;" style="text;html=1;strokeColor=none;fillColor=none;align=center;verticalAlign=middle;whiteSpace=wrap;rounded=0;" vertex="1" parent="WIyWlLk6GJQsqaUBKTNV-1">
          <mxGeometry x="810" y="140" width="600" height="30" as="geometry" />
        </mxCell>
        <mxCell id="7nTJOUyS2WD26f5QNOcy-27" value="&lt;p style=&quot;margin:0px;margin-top:4px;text-align:center;&quot;&gt;&lt;b&gt;StageCredential&lt;/b&gt;&lt;/p&gt;&lt;hr size=&quot;1&quot;&gt;&lt;p style=&quot;margin:0px;margin-left:4px;&quot;&gt;+ credentialId: String&lt;/p&gt;&lt;p style=&quot;margin:0px;margin-left:4px;&quot;&gt;+ variableName: String&lt;/p&gt;&lt;hr size=&quot;1&quot;&gt;&lt;p style=&quot;margin:0px;margin-left:4px;&quot;&gt;&lt;br&gt;&lt;/p&gt;" style="verticalAlign=top;align=left;overflow=fill;fontSize=12;fontFamily=Helvetica;html=1;fillColor=#FFFFFF;" vertex="1" parent="WIyWlLk6GJQsqaUBKTNV-1">
          <mxGeometry x="600" y="120" width="160" height="90" as="geometry" />
        </mxCell>
        <mxCell id="7nTJOUyS2WD26f5QNOcy-30" value="Classname" style="swimlane;fontStyle=1;align=center;verticalAlign=top;childLayout=stackLayout;horizontal=1;startSize=26;horizontalStack=0;resizeParent=1;resizeParentMax=0;resizeLast=0;collapsible=1;marginBottom=0;fontSize=8;fillColor=#FFFFFF;" vertex="1" parent="WIyWlLk6GJQsqaUBKTNV-1">
          <mxGeometry x="354" y="670" width="160" height="86" as="geometry" />
        </mxCell>
        <mxCell id="7nTJOUyS2WD26f5QNOcy-31" value="+ field: type" style="text;strokeColor=none;fillColor=none;align=left;verticalAlign=top;spacingLeft=4;spacingRight=4;overflow=hidden;rotatable=0;points=[[0,0.5],[1,0.5]];portConstraint=eastwest;fontSize=8;" vertex="1" parent="7nTJOUyS2WD26f5QNOcy-30">
          <mxGeometry y="26" width="160" height="26" as="geometry" />
        </mxCell>
        <mxCell id="7nTJOUyS2WD26f5QNOcy-32" value="" style="line;strokeWidth=1;fillColor=none;align=left;verticalAlign=middle;spacingTop=-1;spacingLeft=3;spacingRight=3;rotatable=0;labelPosition=right;points=[];portConstraint=eastwest;strokeColor=inherit;fontSize=8;" vertex="1" parent="7nTJOUyS2WD26f5QNOcy-30">
          <mxGeometry y="52" width="160" height="8" as="geometry" />
        </mxCell>
        <mxCell id="7nTJOUyS2WD26f5QNOcy-33" value="+ method(type): type" style="text;strokeColor=none;fillColor=none;align=left;verticalAlign=top;spacingLeft=4;spacingRight=4;overflow=hidden;rotatable=0;points=[[0,0.5],[1,0.5]];portConstraint=eastwest;fontSize=8;" vertex="1" parent="7nTJOUyS2WD26f5QNOcy-30">
          <mxGeometry y="60" width="160" height="26" as="geometry" />
        </mxCell>
        <mxCell id="7nTJOUyS2WD26f5QNOcy-34" value="&amp;laquo;interface&amp;raquo;&lt;br&gt;&lt;b&gt;Name&lt;/b&gt;" style="html=1;fontSize=8;fillColor=#FFFFFF;" vertex="1" parent="WIyWlLk6GJQsqaUBKTNV-1">
          <mxGeometry x="10" y="688" width="110" height="50" as="geometry" />
        </mxCell>
        <mxCell id="7nTJOUyS2WD26f5QNOcy-43" value="«abstract»&lt;br&gt;&lt;b&gt;Stage&lt;/b&gt;" style="html=1;fontSize=14;fillColor=#FFFFFF;" vertex="1" parent="WIyWlLk6GJQsqaUBKTNV-1">
          <mxGeometry x="340" y="120" width="110" height="140" as="geometry" />
        </mxCell>
        <mxCell id="7nTJOUyS2WD26f5QNOcy-44" value="&lt;b&gt;Job&lt;/b&gt;" style="html=1;fontSize=14;fillColor=#FFFFFF;" vertex="1" parent="WIyWlLk6GJQsqaUBKTNV-1">
          <mxGeometry x="90" y="120" width="110" height="50" as="geometry" />
        </mxCell>
        <mxCell id="7nTJOUyS2WD26f5QNOcy-46" value="&lt;p style=&quot;margin:0px;margin-top:4px;text-align:center;&quot;&gt;&lt;b&gt;StageVariable&lt;/b&gt;&lt;/p&gt;&lt;hr size=&quot;1&quot;&gt;&lt;p style=&quot;margin:0px;margin-left:4px;&quot;&gt;+ Name: String&lt;/p&gt;&lt;p style=&quot;margin:0px;margin-left:4px;&quot;&gt;+ Value: String&lt;/p&gt;&lt;hr size=&quot;1&quot;&gt;&lt;p style=&quot;margin:0px;margin-left:4px;&quot;&gt;&lt;br&gt;&lt;/p&gt;" style="verticalAlign=top;align=left;overflow=fill;fontSize=12;fontFamily=Helvetica;html=1;fillColor=#FFFFFF;" vertex="1" parent="WIyWlLk6GJQsqaUBKTNV-1">
          <mxGeometry x="600" y="242" width="160" height="90" as="geometry" />
        </mxCell>
        <mxCell id="7nTJOUyS2WD26f5QNOcy-47" value="&lt;pre style=&quot;box-sizing: border-box; font-family: SFMono-Regular, Menlo, Monaco, Consolas, &amp;quot;Liberation Mono&amp;quot;, &amp;quot;Courier New&amp;quot;, monospace; margin-top: 0px; margin-bottom: 1rem; overflow: auto; color: rgb(33, 37, 41); text-align: left; background-color: rgb(250, 252, 255);&quot;&gt;&lt;code style=&quot;box-sizing: border-box; font-family: SFMono-Regular, Menlo, Monaco, Consolas, &amp;quot;Liberation Mono&amp;quot;, &amp;quot;Courier New&amp;quot;, monospace; color: inherit; word-break: normal; font-size: 10px;&quot;&gt;&lt;font style=&quot;font-size: 10px;&quot;&gt;&lt;br&gt;  withEnv([&#39;NAME=VALUE&#39;]) { ... } &lt;br&gt; &lt;/font&gt;&lt;/code&gt;&lt;/pre&gt;" style="text;html=1;strokeColor=none;fillColor=none;align=center;verticalAlign=middle;whiteSpace=wrap;rounded=0;" vertex="1" parent="WIyWlLk6GJQsqaUBKTNV-1">
          <mxGeometry x="830" y="260" width="210" height="30" as="geometry" />
        </mxCell>
        <mxCell id="7nTJOUyS2WD26f5QNOcy-52" value="" style="endArrow=open;html=1;endSize=12;startArrow=diamondThin;startSize=14;startFill=0;edgeStyle=orthogonalEdgeStyle;rounded=0;fontSize=10;entryX=0;entryY=0.556;entryDx=0;entryDy=0;entryPerimeter=0;exitX=1;exitY=0.357;exitDx=0;exitDy=0;exitPerimeter=0;" edge="1" parent="WIyWlLk6GJQsqaUBKTNV-1" source="7nTJOUyS2WD26f5QNOcy-43" target="7nTJOUyS2WD26f5QNOcy-27">
          <mxGeometry relative="1" as="geometry">
            <mxPoint x="410" y="260" as="sourcePoint" />
            <mxPoint x="570" y="260" as="targetPoint" />
          </mxGeometry>
        </mxCell>
        <mxCell id="7nTJOUyS2WD26f5QNOcy-53" value="" style="edgeLabel;resizable=0;html=1;align=left;verticalAlign=top;fontSize=10;fillColor=#FFFFFF;" connectable="0" vertex="1" parent="7nTJOUyS2WD26f5QNOcy-52">
          <mxGeometry x="-1" relative="1" as="geometry" />
        </mxCell>
        <mxCell id="7nTJOUyS2WD26f5QNOcy-54" value="0..n" style="edgeLabel;resizable=0;html=1;align=right;verticalAlign=top;fontSize=10;fillColor=#FFFFFF;" connectable="0" vertex="1" parent="7nTJOUyS2WD26f5QNOcy-52">
          <mxGeometry x="1" relative="1" as="geometry">
            <mxPoint x="-10" as="offset" />
          </mxGeometry>
        </mxCell>
        <mxCell id="7nTJOUyS2WD26f5QNOcy-56" value="" style="endArrow=open;html=1;endSize=12;startArrow=diamondThin;startSize=14;startFill=0;edgeStyle=orthogonalEdgeStyle;rounded=0;fontSize=10;exitX=1;exitY=0.5;exitDx=0;exitDy=0;entryX=0;entryY=0.533;entryDx=0;entryDy=0;entryPerimeter=0;" edge="1" parent="WIyWlLk6GJQsqaUBKTNV-1" source="7nTJOUyS2WD26f5QNOcy-43" target="7nTJOUyS2WD26f5QNOcy-46">
          <mxGeometry relative="1" as="geometry">
            <mxPoint x="490" y="290" as="sourcePoint" />
            <mxPoint x="650" y="290" as="targetPoint" />
            <Array as="points">
              <mxPoint x="560" y="190" />
              <mxPoint x="560" y="290" />
            </Array>
          </mxGeometry>
        </mxCell>
        <mxCell id="7nTJOUyS2WD26f5QNOcy-58" value="0..n" style="edgeLabel;resizable=0;html=1;align=right;verticalAlign=top;fontSize=10;fillColor=#FFFFFF;" connectable="0" vertex="1" parent="7nTJOUyS2WD26f5QNOcy-56">
          <mxGeometry x="1" relative="1" as="geometry" />
        </mxCell>
        <mxCell id="7nTJOUyS2WD26f5QNOcy-59" value="" style="endArrow=block;dashed=1;endFill=0;endSize=12;html=1;rounded=0;fontSize=10;entryX=0.25;entryY=1;entryDx=0;entryDy=0;exitX=0.5;exitY=0;exitDx=0;exitDy=0;" edge="1" parent="WIyWlLk6GJQsqaUBKTNV-1" source="7nTJOUyS2WD26f5QNOcy-10" target="7nTJOUyS2WD26f5QNOcy-43">
          <mxGeometry width="160" relative="1" as="geometry">
            <mxPoint x="210" y="400" as="sourcePoint" />
            <mxPoint x="370" y="400" as="targetPoint" />
          </mxGeometry>
        </mxCell>
        <mxCell id="7nTJOUyS2WD26f5QNOcy-69" value="&lt;p style=&quot;margin:0px;margin-top:4px;text-align:center;&quot;&gt;&lt;b&gt;CustomStep&lt;/b&gt;&lt;/p&gt;&lt;hr size=&quot;1&quot;&gt;&lt;p style=&quot;margin:0px;margin-left:4px;&quot;&gt;+ containerImage: Type&lt;/p&gt;&lt;p style=&quot;margin:0px;margin-left:4px;&quot;&gt;+ command: String&amp;nbsp;&lt;/p&gt;&lt;hr size=&quot;1&quot;&gt;&lt;p style=&quot;margin:0px;margin-left:4px;&quot;&gt;&lt;br&gt;&lt;/p&gt;" style="verticalAlign=top;align=left;overflow=fill;fontSize=12;fontFamily=Helvetica;html=1;fillColor=#FFFFFF;" vertex="1" parent="WIyWlLk6GJQsqaUBKTNV-1">
          <mxGeometry x="600" y="380" width="160" height="90" as="geometry" />
        </mxCell>
        <mxCell id="7nTJOUyS2WD26f5QNOcy-72" value="preStep" style="endArrow=open;html=1;endSize=12;startArrow=diamondThin;startSize=14;startFill=0;edgeStyle=orthogonalEdgeStyle;rounded=0;fontSize=10;exitX=1;exitY=0.75;exitDx=0;exitDy=0;" edge="1" parent="WIyWlLk6GJQsqaUBKTNV-1" source="7nTJOUyS2WD26f5QNOcy-43" target="7nTJOUyS2WD26f5QNOcy-69">
          <mxGeometry relative="1" as="geometry">
            <mxPoint x="420" y="360" as="sourcePoint" />
            <mxPoint x="580" y="360" as="targetPoint" />
            <Array as="points">
              <mxPoint x="520" y="225" />
              <mxPoint x="520" y="400" />
            </Array>
          </mxGeometry>
        </mxCell>
        <mxCell id="7nTJOUyS2WD26f5QNOcy-73" value="" style="edgeLabel;resizable=0;html=1;align=left;verticalAlign=top;fontSize=10;fillColor=#FFFFFF;" connectable="0" vertex="1" parent="7nTJOUyS2WD26f5QNOcy-72">
          <mxGeometry x="-1" relative="1" as="geometry" />
        </mxCell>
        <mxCell id="7nTJOUyS2WD26f5QNOcy-74" value="" style="edgeLabel;resizable=0;html=1;align=right;verticalAlign=top;fontSize=10;fillColor=#FFFFFF;" connectable="0" vertex="1" parent="7nTJOUyS2WD26f5QNOcy-72">
          <mxGeometry x="1" relative="1" as="geometry" />
        </mxCell>
        <mxCell id="7nTJOUyS2WD26f5QNOcy-75" value="postStep" style="endArrow=open;html=1;endSize=12;startArrow=diamondThin;startSize=14;startFill=0;edgeStyle=orthogonalEdgeStyle;rounded=0;fontSize=10;entryX=-0.007;entryY=0.462;entryDx=0;entryDy=0;entryPerimeter=0;" edge="1" parent="WIyWlLk6GJQsqaUBKTNV-1" source="7nTJOUyS2WD26f5QNOcy-43" target="7nTJOUyS2WD26f5QNOcy-69">
          <mxGeometry relative="1" as="geometry">
            <mxPoint x="460" y="250" as="sourcePoint" />
            <mxPoint x="590" y="421" as="targetPoint" />
            <Array as="points">
              <mxPoint x="490" y="250" />
              <mxPoint x="490" y="422" />
            </Array>
          </mxGeometry>
        </mxCell>
        <mxCell id="7nTJOUyS2WD26f5QNOcy-76" value="" style="edgeLabel;resizable=0;html=1;align=left;verticalAlign=top;fontSize=10;fillColor=#FFFFFF;" connectable="0" vertex="1" parent="7nTJOUyS2WD26f5QNOcy-75">
          <mxGeometry x="-1" relative="1" as="geometry" />
        </mxCell>
        <mxCell id="7nTJOUyS2WD26f5QNOcy-77" value="" style="edgeLabel;resizable=0;html=1;align=right;verticalAlign=top;fontSize=10;fillColor=#FFFFFF;" connectable="0" vertex="1" parent="7nTJOUyS2WD26f5QNOcy-75">
          <mxGeometry x="1" relative="1" as="geometry" />
        </mxCell>
      </root>
    </mxGraphModel>
  </diagram>
</mxfile>
